<?xml version="1.0" encoding="UTF-8"?>
<svg id="Layer_1" data-name="Layer 1" xmlns="http://www.w3.org/2000/svg" viewBox="0 0 703.83 78.64">
  <defs>
    <style>
      .cls-1 {
        fill: #eaeaea;
      }

      .cls-2 {
        fill: #cb2026;
      }
    </style>
  </defs>
  <g>
    <path class="cls-1" d="M0,32.09C0,17.11,8.19,8.68,22.64,8.68c14.45,0,22.64,8.5,22.64,23.41v3.86s-15.14,0-15.14,0v-3.94c0-6.49-2.32-9.43-7.57-9.43-5.18,0-7.42,2.78-7.42,9.43v11.2s34.38,0,34.38,0v12.75s-34.38,0-34.38,0v11.98s-15.14,0-15.14,0v-35.85Z"/>
    <path class="cls-1" d="M53.16,32.17c0-14.37,9.5-23.49,23.95-23.49,15.3,0,25.03,9.66,25.03,22.56v36.7s-15.07,0-15.07,0v-30.83c0-8.89-.85-14.76-9.66-14.76s-9.19,7.26-9.19,14.22v31.37s-15.07,0-15.07,0v-35.77Z"/>
    <path class="cls-1" d="M105.77,9.69h15.07s0,45.51,0,45.51h20.86s0,12.75,0,12.75h-35.93s0-58.26,0-58.26Z"/>
    <path class="cls-1" d="M145.33,32.17c0-14.37,9.5-23.49,23.95-23.49,15.3,0,25.03,9.66,25.03,22.56v36.7s-15.07,0-15.07,0v-30.83c0-8.89-.85-14.76-9.66-14.76s-9.19,7.26-9.19,14.22v31.37s-15.07,0-15.07,0v-35.77Z"/>
    <path class="cls-1" d="M198,31.71c0-14.76,8.34-23.02,23.33-23.02,15.07,0,23.33,8.19,23.33,23.02v12.28s-15.07,0-15.07,0v-10.43c0-7.73-2.55-11.28-8.27-11.28s-8.27,3.55-8.27,11.28v34.38s-15.07,0-15.07,0V31.71Z"/>
    <path class="cls-1" d="M248.3,9.69h15.07s0,12.98,0,12.98h9.74c12.83,0,20.01,6.95,20.01,19.39v13.52s-15.07,0-15.07,0v-12.98c0-4.33-2.47-7.03-6.49-7.03h-8.19s0,32.37,0,32.37h-15.07s0-58.26,0-58.26Z"/>
    <path class="cls-1" d="M297.77,47.24v-24.8s-11.59,0-11.59,0v-12.75s26.73,0,26.73,0v36.24c0,6.26,2.55,9.35,7.8,9.35,5.49,0,8.04-2.94,8.04-9.35v-17.46s15.14,0,15.14,0v18.77c0,13.44-8.88,21.71-23.18,21.71-13.83,0-22.95-8.65-22.95-21.71Z"/>
  </g>
  <path class="cls-2" d="M702.21,0h-342.83c-.89,0-1.61.73-1.61,1.62v75.4c0,.89.72,1.62,1.61,1.62h342.83c.89,0,1.62-.73,1.62-1.62V1.62c0-.89-.73-1.62-1.62-1.62ZM435.2,51.84h-11.59s0,16.61,0,16.61h-15.07s0-36.47,0-36.47c0-5.94-2.7-9.11-7.88-9.11-5.33,0-7.88,2.93-7.88,9.11v12.53s-15.07,0-15.07,0v-13.99c0-13.44,8.5-21.32,22.95-21.32,14.45,0,22.95,7.88,22.95,21.32v8.58s11.59,0,11.59,0v12.75ZM487.69,41.72h-33.76s0,5.09,0,5.09c0,6.1,2.39,8.96,7.49,8.96,4.87,0,7.18-2.55,7.18-7.88v-1.54s15.07,0,15.07,0v1.77c0,12.75-9.04,21.32-22.56,21.32-13.61,0-22.26-8.72-22.26-22.33V10.19s15.07,0,15.07,0v18.78s33.76,0,33.76,0v12.75ZM551.89,22.94h-11.59s0,23.96,0,23.96c0,12.9-9.73,22.55-25.03,22.55-14.45,0-23.96-9.11-23.96-23.48V10.19s15.07,0,15.07,0v31.37c0,6.96.3,14.22,9.19,14.22,8.8,0,9.66-5.87,9.66-14.76V10.19s26.65,0,26.65,0v12.75ZM619.68,41.72h-33.77s0,5.09,0,5.09c0,6.1,2.39,8.96,7.5,8.96,4.86,0,7.18-2.55,7.18-7.88v-1.54s15.06,0,15.06,0v1.77c0,12.75-9.04,21.32-22.56,21.32-13.59,0-22.24-8.72-22.24-22.33V10.19s15.06,0,15.06,0v18.78s33.77,0,33.77,0v12.75ZM683.88,22.94h-11.59s0,23.96,0,23.96c0,12.9-9.74,22.55-25.04,22.55-14.45,0-23.95-9.11-23.95-23.48V10.19s15.06,0,15.06,0v31.37c0,6.96.32,14.22,9.21,14.22s9.65-5.87,9.65-14.76V10.19s26.66,0,26.66,0v12.75Z"/>
  <g>
    <path class="cls-1" d="M683.88,10.19v12.75s-11.59,0-11.59,0v23.96c0,12.9-9.74,22.55-25.04,22.55-14.45,0-23.95-9.11-23.95-23.48V10.19s15.06,0,15.06,0v31.37c0,6.96.32,14.22,9.21,14.22s9.65-5.87,9.65-14.76V10.19s26.66,0,26.66,0Z"/>
    <path class="cls-1" d="M551.89,10.19v12.75s-11.59,0-11.59,0v23.96c0,12.9-9.73,22.55-25.03,22.55-14.45,0-23.96-9.11-23.96-23.48V10.19s15.07,0,15.07,0v31.37c0,6.96.3,14.22,9.19,14.22,8.8,0,9.66-5.87,9.66-14.76V10.19s26.65,0,26.65,0Z"/>
    <path class="cls-1" d="M585.91,41.72v5.09c0,6.1,2.39,8.96,7.5,8.96,4.86,0,7.18-2.55,7.18-7.88v-1.54s15.06,0,15.06,0v1.77c0,12.75-9.04,21.32-22.56,21.32-13.59,0-22.24-8.72-22.24-22.33V10.19s15.06,0,15.06,0v18.78s33.77,0,33.77,0v12.75s-33.77,0-33.77,0Z"/>
    <path class="cls-1" d="M453.92,41.72v5.09c0,6.1,2.39,8.96,7.49,8.96,4.87,0,7.18-2.55,7.18-7.88v-1.54s15.07,0,15.07,0v1.77c0,12.75-9.04,21.32-22.56,21.32-13.61,0-22.26-8.72-22.26-22.33V10.19s15.07,0,15.07,0v18.78s33.76,0,33.76,0v12.75s-33.76,0-33.76,0Z"/>
    <path class="cls-1" d="M435.2,39.09v12.75s-11.59,0-11.59,0v16.61s-15.07,0-15.07,0V31.98c0-5.94-2.7-9.11-7.88-9.11-5.33,0-7.88,2.93-7.88,9.11v12.53s-15.07,0-15.07,0v-13.99c0-13.44,8.5-21.32,22.95-21.32,14.45,0,22.95,7.88,22.95,21.32v8.58s11.59,0,11.59,0Z"/>
  </g>
</svg>