<svg width="55" height="42" viewBox="0 0 55 42" fill="none" xmlns="http://www.w3.org/2000/svg">
<path d="M0 9.12V3.576C0 2.976 0.124 2.44 0.372 1.968C0.628 1.488 1.008 1.112 1.512 0.84C2.016 0.568 2.644 0.432 3.396 0.432C4.156 0.432 4.78 0.564 5.268 0.828C5.764 1.092 6.132 1.484 6.372 2.004C6.612 2.524 6.732 3.168 6.732 3.936H5.04C5.04 3.192 4.908 2.66 4.644 2.34C4.38 2.012 3.952 1.848 3.36 1.848C2.976 1.848 2.66 1.92 2.412 2.064C2.172 2.208 1.992 2.428 1.872 2.724C1.752 3.012 1.692 3.388 1.692 3.852V9.12H0ZM1.524 4.908H6.78V6.324H1.524V4.908Z" fill="white"/>
<path d="M8.58956 9.12V3.576C8.58956 2.976 8.71756 2.44 8.97356 1.968C9.22956 1.488 9.60956 1.112 10.1136 0.84C10.6256 0.568 11.2576 0.432 12.0096 0.432C12.7296 0.432 13.3376 0.564 13.8336 0.828C14.3296 1.084 14.7056 1.452 14.9616 1.932C15.2176 2.404 15.3456 2.96 15.3456 3.6V9.12H13.6536V3.84C13.6536 3.112 13.5096 2.6 13.2216 2.304C12.9416 2 12.5216 1.848 11.9616 1.848C11.5776 1.848 11.2616 1.92 11.0136 2.064C10.7656 2.2 10.5816 2.416 10.4616 2.712C10.3416 3.008 10.2816 3.384 10.2816 3.84V9.12H8.58956Z" fill="white"/>
<path d="M17.4741 9.12V0.552H19.1661V7.704H21.4461V9.12H17.4741Z" fill="white"/>
<path d="M22.7575 9.12V3.576C22.7575 2.976 22.8855 2.44 23.1415 1.968C23.3975 1.488 23.7775 1.112 24.2815 0.84C24.7935 0.568 25.4255 0.432 26.1775 0.432C26.8975 0.432 27.5055 0.564 28.0015 0.828C28.4975 1.084 28.8735 1.452 29.1295 1.932C29.3855 2.404 29.5135 2.96 29.5135 3.6V9.12H27.8215V3.84C27.8215 3.112 27.6775 2.6 27.3895 2.304C27.1095 2 26.6895 1.848 26.1295 1.848C25.7455 1.848 25.4295 1.92 25.1815 2.064C24.9335 2.2 24.7495 2.416 24.6295 2.712C24.5095 3.008 24.4495 3.384 24.4495 3.84V9.12H22.7575Z" fill="white"/>
<path d="M31.582 9.12V3.576C31.582 2.976 31.702 2.44 31.942 1.968C32.19 1.488 32.554 1.112 33.034 0.84C33.522 0.568 34.126 0.432 34.846 0.432C35.574 0.432 36.174 0.564 36.646 0.828C37.118 1.092 37.47 1.484 37.702 2.004C37.934 2.524 38.05 3.168 38.05 3.936H36.358C36.358 3.192 36.234 2.66 35.986 2.34C35.746 2.012 35.354 1.848 34.81 1.848C34.458 1.848 34.166 1.92 33.934 2.064C33.71 2.208 33.542 2.428 33.43 2.724C33.326 3.012 33.274 3.388 33.274 3.852V9.12H31.582Z" fill="white"/>
<path d="M39.7397 0.552H41.4317V2.964C41.4317 3.188 41.4237 3.408 41.4077 3.624C41.3997 3.84 41.3797 4.06 41.3477 4.284H41.4317V9.12H39.7397V0.552ZM41.3357 6.648V4.476C41.5677 3.956 41.9037 3.572 42.3437 3.324C42.7917 3.076 43.3077 2.952 43.8917 2.952C44.4837 2.952 44.9957 3.08 45.4277 3.336C45.8597 3.584 46.1917 3.936 46.4237 4.392C46.6557 4.84 46.7717 5.368 46.7717 5.976V6.684H45.0797V6.096C45.0797 5.528 44.9437 5.1 44.6717 4.812C44.3997 4.516 43.9997 4.368 43.4717 4.368C43.0797 4.368 42.7277 4.444 42.4157 4.596C42.1117 4.74 41.8717 4.956 41.6957 5.244C41.5197 5.532 41.4317 5.896 41.4317 6.336V6.648H41.3357Z" fill="white"/>
<path d="M51.2347 9.24C50.5547 9.24 49.9667 9.112 49.4707 8.856C48.9747 8.592 48.5907 8.216 48.3187 7.728C48.0467 7.24 47.9107 6.656 47.9107 5.976H49.6027C49.6027 6.368 49.6667 6.704 49.7947 6.984C49.9227 7.256 50.1067 7.464 50.3467 7.608C50.5947 7.752 50.8907 7.824 51.2347 7.824C51.6107 7.824 51.9147 7.756 52.1467 7.62C52.3787 7.484 52.5467 7.284 52.6507 7.02C52.7627 6.756 52.8187 6.432 52.8187 6.048V4.08H54.5107V6.156C54.5107 6.804 54.3747 7.36 54.1027 7.824C53.8387 8.28 53.4627 8.632 52.9747 8.88C52.4867 9.12 51.9067 9.24 51.2347 9.24ZM51.2467 1.452L51.3427 1.632L50.1787 2.388H49.7467C49.1307 2.388 48.6627 2.232 48.3427 1.92C48.0227 1.6 47.8627 1.076 47.8627 0.348001V0H49.5547V0.36C49.5547 0.656 49.5907 0.884 49.6627 1.044C49.7347 1.204 49.8467 1.312 49.9987 1.368C50.1507 1.424 50.3467 1.452 50.5867 1.452H51.2467ZM49.6027 5.976H47.9107C47.9107 5.432 47.9867 4.9 48.1387 4.38C48.2907 3.86 48.5027 3.368 48.7747 2.904C49.0547 2.432 49.3707 2.008 49.7227 1.632H51.3427C51.1267 1.872 50.9147 2.164 50.7067 2.508C50.4987 2.844 50.3107 3.212 50.1427 3.612C49.9827 4.004 49.8507 4.404 49.7467 4.812C49.6507 5.212 49.6027 5.6 49.6027 5.976Z" fill="white"/>
<g transform="translate(-18.5, 0)">
<path d="M34.8346 25.12H33.1426V19.84C33.1426 19.112 33.0026 18.6 32.7226 18.304C32.4426 18 32.0266 17.848 31.4746 17.848C31.0906 17.848 30.7746 17.92 30.5266 18.064C30.2866 18.208 30.1066 18.432 29.9866 18.736C29.8746 19.04 29.8186 19.436 29.8186 19.924H28.1266C28.1266 19.212 28.2506 18.596 28.4986 18.076C28.7466 17.548 29.1226 17.144 29.6266 16.864C30.1306 16.576 30.7586 16.432 31.5106 16.432C32.2306 16.432 32.8386 16.564 33.3346 16.828C33.8306 17.084 34.2026 17.448 34.4506 17.92C34.7066 18.392 34.8346 18.952 34.8346 19.6V25.12ZM34.6426 20.908H36.5626V22.324H34.6426V20.908Z" fill="white"/>
<path d="M37.9219 16.552H39.6139V21.82C39.6139 22.276 39.6739 22.652 39.7939 22.948C39.9139 23.244 40.0939 23.464 40.3339 23.608C40.5819 23.752 40.8979 23.824 41.2819 23.824C41.8739 23.824 42.3019 23.664 42.5659 23.344C42.8299 23.016 42.9619 22.48 42.9619 21.736H44.6539C44.6539 22.496 44.5339 23.14 44.2939 23.668C44.0539 24.188 43.6859 24.58 43.1899 24.844C42.7019 25.108 42.0779 25.24 41.3179 25.24C40.5659 25.24 39.9379 25.104 39.4339 24.832C38.9299 24.552 38.5499 24.176 38.2939 23.704C38.0459 23.232 37.9219 22.696 37.9219 22.096V16.552ZM39.4459 19.576V18.16H44.7019V19.576H39.4459Z" fill="white"/>
<path d="M49.9314 25.24C49.1714 25.24 48.5394 25.104 48.0354 24.832C47.5314 24.552 47.1514 24.176 46.8954 23.704C46.6474 23.232 46.5234 22.696 46.5234 22.096V16.552H48.2154V21.808C48.2154 22.272 48.2754 22.652 48.3954 22.948C48.5154 23.244 48.6954 23.464 48.9354 23.608C49.1834 23.752 49.4994 23.824 49.8834 23.824C50.4434 23.824 50.8674 23.676 51.1554 23.38C51.4434 23.076 51.5874 22.56 51.5874 21.832V16.552H55.0074V17.968H53.2794V22.072C53.2794 22.712 53.1474 23.272 52.8834 23.752C52.6274 24.224 52.2514 24.592 51.7554 24.856C51.2594 25.112 50.6514 25.24 49.9314 25.24Z" fill="white"/>
</g>
<path d="M37.9219 32.552H39.6139V37.82C39.6139 38.276 39.6739 38.652 39.7939 38.948C39.9139 39.244 40.0939 39.464 40.3339 39.608C40.5819 39.752 40.8979 39.824 41.2819 39.824C41.8739 39.824 42.3019 39.664 42.5659 39.344C42.8299 39.016 42.9619 38.48 42.9619 37.736H44.6539C44.6539 38.496 44.5339 39.14 44.2939 39.668C44.0539 40.188 43.6859 40.58 43.1899 40.844C42.7019 41.108 42.0779 41.24 41.3179 41.24C40.5659 41.24 39.9379 41.104 39.4339 40.832C38.9299 40.552 38.5499 40.176 38.2939 39.704C38.0459 39.232 37.9219 38.696 37.9219 38.096V32.552ZM39.4459 35.576V34.16H44.7019V35.576H39.4459Z" fill="white"/>
<path d="M49.9314 41.24C49.1714 41.24 48.5394 41.104 48.0354 40.832C47.5314 40.552 47.1514 40.176 46.8954 39.704C46.6474 39.232 46.5234 38.696 46.5234 38.096V32.552H48.2154V37.808C48.2154 38.272 48.2754 38.652 48.3954 38.948C48.5154 39.244 48.6954 39.464 48.9354 39.608C49.1834 39.752 49.4994 39.824 49.8834 39.824C50.4434 39.824 50.8674 39.676 51.1554 39.38C51.4434 39.076 51.5874 38.56 51.5874 37.832V32.552H55.0074V33.968H53.2794V38.072C53.2794 38.712 53.1474 39.272 52.8834 39.752C52.6274 40.224 52.2514 40.592 51.7554 40.856C51.2594 41.112 50.6514 41.24 49.9314 41.24Z" fill="white"/>
</svg>
